<svg width="40" height="40" viewBox="0 0 40 40" fill="none" xmlns="http://www.w3.org/2000/svg">
<path d="M15.9167 25.25L30.0417 11.125C30.375 10.7917 30.7639 10.625 31.2083 10.625C31.6528 10.625 32.0417 10.7917 32.375 11.125C32.7083 11.4583 32.875 11.8542 32.875 12.3125C32.875 12.7708 32.7083 13.1667 32.375 13.5L17.0833 28.8333C16.75 29.1667 16.3611 29.3333 15.9167 29.3333C15.4722 29.3333 15.0833 29.1667 14.75 28.8333L7.58333 21.6667C7.25 21.3333 7.09028 20.9375 7.10417 20.4792C7.11805 20.0208 7.29167 19.625 7.625 19.2917C7.95833 18.9583 8.35417 18.7917 8.8125 18.7917C9.27083 18.7917 9.66667 18.9583 10 19.2917L15.9167 25.25Z" fill="#1E1E1E"/>
</svg>
