<svg width="40" height="40" viewBox="0 0 40 40" fill="none" xmlns="http://www.w3.org/2000/svg">
<path d="M20 22.3333L15.1667 27.1666C14.8611 27.4722 14.4722 27.625 14 27.625C13.5278 27.625 13.1389 27.4722 12.8333 27.1666C12.5278 26.8611 12.375 26.4722 12.375 26C12.375 25.5277 12.5278 25.1388 12.8333 24.8333L17.6667 20L12.8333 15.2083C12.5278 14.9027 12.375 14.5138 12.375 14.0416C12.375 13.5694 12.5278 13.1805 12.8333 12.875C13.1389 12.5694 13.5278 12.4166 14 12.4166C14.4722 12.4166 14.8611 12.5694 15.1667 12.875L20 17.7083L24.7917 12.875C25.0972 12.5694 25.4861 12.4166 25.9583 12.4166C26.4306 12.4166 26.8194 12.5694 27.125 12.875C27.4583 13.2083 27.625 13.6041 27.625 14.0625C27.625 14.5208 27.4583 14.9027 27.125 15.2083L22.2917 20L27.125 24.8333C27.4306 25.1388 27.5833 25.5277 27.5833 26C27.5833 26.4722 27.4306 26.8611 27.125 27.1666C26.7917 27.5 26.3958 27.6666 25.9375 27.6666C25.4792 27.6666 25.0972 27.5 24.7917 27.1666L20 22.3333Z" fill="#1D1D1D"/>
</svg>
