<svg width="28" height="28" viewBox="0 0 28 28" fill="none" xmlns="http://www.w3.org/2000/svg">
<path fill-rule="evenodd" clip-rule="evenodd" d="M14 21C17.866 21 21 17.866 21 14C21 10.134 17.866 7 14 7C10.134 7 7 10.134 7 14C7 17.866 10.134 21 14 21ZM14 18.6667C16.5773 18.6667 18.6667 16.5773 18.6667 14C18.6667 11.4227 16.5773 9.33333 14 9.33333C11.4227 9.33333 9.33333 11.4227 9.33333 14C9.33333 16.5773 11.4227 18.6667 14 18.6667Z" fill="#1D1D1D"/>
<path d="M21 5.83325C20.3557 5.83325 19.8334 6.35559 19.8334 6.99992C19.8334 7.64425 20.3557 8.16659 21 8.16659C21.6444 8.16659 22.1667 7.64425 22.1667 6.99992C22.1667 6.35559 21.6444 5.83325 21 5.83325Z" fill="#1D1D1D"/>
<path fill-rule="evenodd" clip-rule="evenodd" d="M1.92964 4.9887C1.16669 6.48608 1.16669 8.44626 1.16669 12.3666V15.6333C1.16669 19.5536 1.16669 21.5139 1.92964 23.0112C2.60075 24.3283 3.67161 25.3992 4.98876 26.0703C6.48614 26.8333 8.44633 26.8333 12.3667 26.8333H15.6334C19.5537 26.8333 21.5139 26.8333 23.0112 26.0703C24.3284 25.3992 25.3993 24.3283 26.0704 23.0112C26.8334 21.5139 26.8334 19.5536 26.8334 15.6333V12.3666C26.8334 8.44626 26.8334 6.48608 26.0704 4.9887C25.3993 3.67155 24.3284 2.60069 23.0112 1.92958C21.5139 1.16663 19.5537 1.16663 15.6334 1.16663H12.3667C8.44633 1.16663 6.48614 1.16663 4.98876 1.92958C3.67161 2.60069 2.60075 3.67155 1.92964 4.9887ZM15.6334 3.49996H12.3667C10.368 3.49996 9.00931 3.50178 7.95911 3.58758C6.93613 3.67116 6.413 3.82265 6.04807 4.00859C5.16998 4.45601 4.45607 5.16991 4.00865 6.04801C3.82271 6.41294 3.67122 6.93607 3.58764 7.95905C3.50184 9.00925 3.50002 10.3679 3.50002 12.3666V15.6333C3.50002 17.632 3.50184 18.9906 3.58764 20.0408C3.67122 21.0639 3.82271 21.587 4.00865 21.952C4.45607 22.83 5.16998 23.5439 6.04807 23.9913C6.413 24.1773 6.93613 24.3288 7.95911 24.4123C9.00931 24.4981 10.368 24.5 12.3667 24.5H15.6334C17.6321 24.5 18.9907 24.4981 20.0409 24.4123C21.064 24.3288 21.5871 24.1773 21.952 23.9913C22.8301 23.5439 23.5439 22.83 23.9914 21.952C24.1773 21.587 24.3289 21.0639 24.4124 20.0408C24.4982 18.9906 24.5 17.632 24.5 15.6333V12.3666C24.5 10.3679 24.4982 9.00925 24.4124 7.95905C24.3289 6.93607 24.1773 6.41294 23.9914 6.04801C23.5439 5.16991 22.8301 4.45601 21.952 4.00859C21.5871 3.82265 21.064 3.67116 20.0409 3.58758C18.9907 3.50178 17.6321 3.49996 15.6334 3.49996Z" fill="#1D1D1D"/>
</svg>
