<svg width="14" height="14" viewBox="0 0 14 14" fill="none" xmlns="http://www.w3.org/2000/svg">
<path fill-rule="evenodd" clip-rule="evenodd" d="M7.00001 10.8182C9.10872 10.8182 10.8182 9.10878 10.8182 7.00007C10.8182 4.89134 9.10872 3.18188 7.00001 3.18188C4.89128 3.18188 3.18182 4.89134 3.18182 7.00007C3.18182 9.10878 4.89128 10.8182 7.00001 10.8182ZM7.00001 9.54552C8.4058 9.54552 9.54546 8.40586 9.54546 7.00007C9.54546 5.59425 8.4058 4.45461 7.00001 4.45461C5.59419 4.45461 4.45455 5.59425 4.45455 7.00007C4.45455 8.40586 5.59419 9.54552 7.00001 9.54552Z" fill="white" stroke="white" stroke-width="0.00064"/>
<path d="M10.8182 2.54541C10.4667 2.54541 10.1818 2.83032 10.1818 3.18177C10.1818 3.53322 10.4667 3.81814 10.8182 3.81814C11.1697 3.81814 11.4546 3.53322 11.4546 3.18177C11.4546 2.83032 11.1697 2.54541 10.8182 2.54541Z" fill="white" stroke="white" stroke-width="0.00064"/>
<path fill-rule="evenodd" clip-rule="evenodd" d="M0.416156 2.08477C0 2.90152 0 3.97071 0 6.10909V7.89091C0 10.0293 0 11.0985 0.416156 11.9152C0.782218 12.6337 1.36632 13.2178 2.08477 13.5838C2.90152 14 3.97071 14 6.10909 14H7.89091C10.0293 14 11.0985 14 11.9152 13.5838C12.6337 13.2178 13.2178 12.6337 13.5838 11.9152C14 11.0985 14 10.0293 14 7.89091V6.10909C14 3.97071 14 2.90152 13.5838 2.08477C13.2178 1.36632 12.6337 0.782218 11.9152 0.416156C11.0985 0 10.0293 0 7.89091 0H6.10909C3.97071 0 2.90152 0 2.08477 0.416156C1.36632 0.782218 0.782218 1.36632 0.416156 2.08477ZM7.89091 1.27273H6.10909C5.0189 1.27273 4.2778 1.27372 3.70496 1.32052C3.14697 1.36611 2.86163 1.44874 2.66257 1.55016C2.18361 1.79421 1.79421 2.18361 1.55016 2.66257C1.44874 2.86163 1.36611 3.14697 1.32052 3.70496C1.27372 4.2778 1.27273 5.0189 1.27273 6.10909V7.89091C1.27273 8.98113 1.27372 9.72217 1.32052 10.295C1.36611 10.8531 1.44874 11.1384 1.55016 11.3375C1.79421 11.8164 2.18361 12.2058 2.66257 12.4498C2.86163 12.5513 3.14697 12.6339 3.70496 12.6795C4.2778 12.7263 5.0189 12.7273 6.10909 12.7273H7.89091C8.98113 12.7273 9.72217 12.7263 10.295 12.6795C10.8531 12.6339 11.1384 12.5513 11.3375 12.4498C11.8164 12.2058 12.2058 11.8164 12.4498 11.3375C12.5513 11.1384 12.6339 10.8531 12.6795 10.295C12.7263 9.72217 12.7273 8.98113 12.7273 7.89091V6.10909C12.7273 5.0189 12.7263 4.2778 12.6795 3.70496C12.6339 3.14697 12.5513 2.86163 12.4498 2.66257C12.2058 2.18361 11.8164 1.79421 11.3375 1.55016C11.1384 1.44874 10.8531 1.36611 10.295 1.32052C9.72217 1.27372 8.98113 1.27273 7.89091 1.27273Z" fill="white" stroke="white" stroke-width="0.00064"/>
</svg>
