<svg width="40" height="40" viewBox="0 0 40 40" fill="none" xmlns="http://www.w3.org/2000/svg">
<path d="M11.6667 28.3333C9.36115 28.3333 7.39587 27.5208 5.77087 25.8958C4.14587 24.2708 3.33337 22.3055 3.33337 20C3.33337 17.6944 4.14587 15.7292 5.77087 14.1042C7.39587 12.4792 9.36115 11.6667 11.6667 11.6667H16.6667C17.1389 11.6667 17.5348 11.8264 17.8542 12.1458C18.1737 12.4653 18.3334 12.8611 18.3334 13.3333C18.3334 13.8055 18.1737 14.2014 17.8542 14.5208C17.5348 14.8403 17.1389 15 16.6667 15H11.6667C10.2778 15 9.09726 15.4861 8.12504 16.4583C7.15282 17.4305 6.66671 18.6111 6.66671 20C6.66671 21.3889 7.15282 22.5694 8.12504 23.5417C9.09726 24.5139 10.2778 25 11.6667 25H16.6667C17.1389 25 17.5348 25.1597 17.8542 25.4792C18.1737 25.7986 18.3334 26.1944 18.3334 26.6667C18.3334 27.1389 18.1737 27.5347 17.8542 27.8542C17.5348 28.1736 17.1389 28.3333 16.6667 28.3333H11.6667ZM15 21.6667C14.5278 21.6667 14.132 21.5069 13.8125 21.1875C13.4931 20.868 13.3334 20.4722 13.3334 20C13.3334 19.5278 13.4931 19.1319 13.8125 18.8125C14.132 18.493 14.5278 18.3333 15 18.3333H25C25.4723 18.3333 25.8681 18.493 26.1875 18.8125C26.507 19.1319 26.6667 19.5278 26.6667 20C26.6667 20.4722 26.507 20.868 26.1875 21.1875C25.8681 21.5069 25.4723 21.6667 25 21.6667H15ZM23.3334 28.3333C22.8612 28.3333 22.4653 28.1736 22.1459 27.8542C21.8264 27.5347 21.6667 27.1389 21.6667 26.6667C21.6667 26.1944 21.8264 25.7986 22.1459 25.4792C22.4653 25.1597 22.8612 25 23.3334 25H28.3334C29.7223 25 30.9028 24.5139 31.875 23.5417C32.8473 22.5694 33.3334 21.3889 33.3334 20C33.3334 18.6111 32.8473 17.4305 31.875 16.4583C30.9028 15.4861 29.7223 15 28.3334 15H23.3334C22.8612 15 22.4653 14.8403 22.1459 14.5208C21.8264 14.2014 21.6667 13.8055 21.6667 13.3333C21.6667 12.8611 21.8264 12.4653 22.1459 12.1458C22.4653 11.8264 22.8612 11.6667 23.3334 11.6667H28.3334C30.6389 11.6667 32.6042 12.4792 34.2292 14.1042C35.8542 15.7292 36.6667 17.6944 36.6667 20C36.6667 22.3055 35.8542 24.2708 34.2292 25.8958C32.6042 27.5208 30.6389 28.3333 28.3334 28.3333H23.3334Z" fill="#1E1E1E"/>
</svg>
